<?xml version="1.0" standalone="no"?>
<!DOCTYPE svg PUBLIC "-//W3C//DTD SVG 20010904//EN"
 "http://www.w3.org/TR/2001/REC-SVG-20010904/DTD/svg10.dtd">
<svg version="1.0" xmlns="http://www.w3.org/2000/svg"
 width="700.000000pt" height="700.000000pt" viewBox="0 0 700.000000 700.000000"
 preserveAspectRatio="xMidYMid meet">
<metadata>
Created by potrace 1.11, written by Peter Selinger 2001-2013
</metadata>
<g transform="translate(0.000000,700.000000) scale(0.100000,-0.100000)"
fill="#000000" stroke="none">
<path d="M6010 5676 c-13 -6 -320 -441 -684 -966 -607 -876 -664 -955 -691
-958 -17 -2 -96 -14 -176 -27 -138 -23 -189 -24 -189 -4 0 4 -27 38 -61 74
-42 45 -82 75 -127 97 -62 31 -73 33 -167 32 -120 0 -159 -12 -247 -71 l-67
-46 -78 5 c-71 4 -88 10 -188 61 -128 66 -215 85 -309 68 -71 -13 -108 -32
-176 -90 -96 -82 -126 -101 -205 -132 -97 -37 -159 -38 -271 -3 -116 36 -204
31 -301 -16 -68 -33 -126 -86 -290 -261 -57 -61 -83 -78 -320 -207 -264 -143
-373 -199 -362 -188 38 40 180 130 287 181 72 35 132 67 132 71 0 10 -146 -4
-288 -27 -253 -42 -519 -134 -558 -194 -48 -74 59 -122 376 -170 1309 -195
2966 -217 4370 -59 566 63 787 108 843 172 47 53 -56 119 -288 187 -161 46
-534 109 -551 93 -2 -3 43 -30 99 -61 110 -60 287 -173 287 -183 0 -3 -21 6
-46 21 -26 15 -96 52 -158 82 -203 102 -279 161 -500 390 l-117 122 585 951
c323 523 586 959 586 968 0 55 -100 114 -150 88z"/>
<path d="M2893 5406 c-24 -21 -28 -31 -27 -78 1 -85 84 -228 167 -285 36 -25
39 -25 55 -9 26 25 22 169 -6 263 -28 91 -66 133 -122 133 -27 0 -48 -8 -67
-24z"/>
<path d="M2924 4701 c-32 -14 -64 -60 -64 -92 0 -94 148 -309 213 -309 11 0
20 15 28 43 24 88 -19 284 -75 336 -26 24 -72 34 -102 22z"/>
<path d="M3640 4692 c-50 -24 -65 -61 -50 -122 16 -67 75 -162 137 -221 84
-80 103 -67 103 71 0 125 -44 246 -100 275 -37 19 -47 19 -90 -3z"/>
<path d="M545 3509 c-66 -15 -197 -60 -245 -84 -70 -35 -83 -55 -78 -115 17
-178 464 -561 1206 -1034 304 -194 593 -362 802 -467 115 -58 119 -61 126 -97
4 -20 11 -43 17 -50 40 -50 396 -168 637 -211 396 -70 775 -51 1163 59 283 81
397 140 397 205 0 30 10 36 105 70 426 149 901 419 1210 689 180 157 403 367
519 488 70 73 162 161 203 195 42 33 88 76 102 94 30 39 33 89 6 120 -42 47
-272 133 -390 145 -94 10 -120 -6 -209 -126 -75 -100 -97 -144 -80 -160 18
-17 86 -29 105 -19 10 5 42 44 70 87 60 90 73 102 111 102 33 0 130 -37 140
-53 17 -28 -25 -119 -119 -257 -121 -176 -130 -181 -358 -219 -681 -112 -1739
-194 -2515 -195 -695 0 -1654 67 -2335 165 -275 39 -388 63 -424 88 -32 23
-214 299 -239 362 -13 35 -13 41 2 64 21 32 54 45 110 45 52 0 59 -6 129 -102
31 -42 65 -82 76 -87 27 -15 111 14 111 39 0 22 -64 118 -126 189 -69 78 -123
94 -229 70z m3930 -1758 c-18 -17 -242 -89 -357 -115 -246 -54 -315 -61 -603
-60 -283 0 -415 13 -650 65 -110 24 -387 100 -382 105 2 2 91 -16 198 -41 663
-153 1126 -149 1665 14 71 22 131 39 134 40 2 1 0 -3 -5 -8z"/>
</g>
</svg>
