<svg 
xmlns="http://www.w3.org/2000/svg" xmlns:xlink="http://www.w3.org/1999/xlink" version="1.1" x="0px" y="0px" 
viewBox="0 0 100 100" enable-background="new 0 0 100 100" xml:space="preserve">
<desc>Created by Berkay Sargın from the Noun Project</desc>
<g>
<path fill='#D64933' d="M65.393,72.083c-1.47,0-2.805-0.925-3.321-2.302l-1.392-3.713c-0.427,0.026-0.849,0.041-1.261,0.041h-5.414   c-11.22,0-20.348-9.129-20.348-20.349v-5.413C33.657,29.129,42.785,20,54.005,20h5.414c11.219,0,20.348,9.129,20.348,20.348v5.413   c0,6.588-3.174,12.736-8.52,16.559l-2.495,7.356c-0.48,1.415-1.809,2.384-3.304,2.406L65.393,72.083z M62.906,62.438l2.311,6.164   c0.027,0.071,0.098,0.122,0.176,0.122v1.679l0.007-1.679c0.074-0.003,0.145-0.054,0.169-0.127l2.856-8.418l0.471-0.317   c4.703-3.168,7.511-8.438,7.511-14.101v-5.413c0-9.367-7.621-16.987-16.987-16.987h-5.414c-9.367,0-16.988,7.62-16.988,16.987   v5.413c0,9.367,7.621,16.988,16.988,16.988h5.414c0.695,0,1.425-0.047,2.169-0.144L62.906,62.438z"/>
<path fill='#D64933' d="M54.021,67.96c-12.249,0-22.214-9.966-22.214-22.214v-5.414c0-2.907,0.566-5.682,1.585-8.228   c-7.621,2.351-13.159,9.449-13.159,17.841v5.413c0,10.312,8.357,18.667,18.667,18.667h5.414c0.808,0,1.602-0.056,2.381-0.154   l1.845,4.918C48.813,79.519,49.511,80,50.287,80c0.011,0,0.021,0,0.03,0c0.789-0.013,1.485-0.52,1.738-1.267l2.674-7.881   c1.231-0.828,2.356-1.802,3.356-2.893H54.021z"/>
<path fill='#D64933' d="M69.945,38.949c0.118-0.119,0.185-0.279,0.184-0.444l0.001-1.756c0-0.346-0.281-0.627-0.629-0.629l-25.83,0.002   c-0.347,0-0.628,0.281-0.629,0.627v1.755c0,0.166,0.066,0.326,0.185,0.444s0.277,0.183,0.444,0.185h25.83   C69.668,39.133,69.827,39.066,69.945,38.949z"/>
<path fill='#D64933' d="M43.043,42.771l-0.001,1.755c0,0.166,0.066,0.325,0.185,0.444c0.117,0.117,0.277,0.183,0.444,0.185l25.83-0.002   c0.174,0,0.331-0.068,0.444-0.183c0.114-0.114,0.184-0.271,0.185-0.444l-0.001-1.753c0.001-0.168-0.065-0.328-0.184-0.445   c-0.117-0.118-0.277-0.184-0.444-0.184l-25.83-0.002C43.324,42.143,43.043,42.424,43.043,42.771z"/>
<path fill='#D64933' d="M43.043,48.911l-0.001,1.756c0,0.165,0.066,0.325,0.185,0.443s0.277,0.185,0.444,0.185h25.83   c0.174,0,0.331-0.071,0.445-0.185c0.113-0.113,0.185-0.271,0.184-0.446v-1.75c0-0.169-0.065-0.328-0.184-0.446   s-0.278-0.184-0.445-0.184h-25.83C43.324,48.282,43.043,48.563,43.043,48.911z"/></g>
</svg>