<svg
 xmlns="http://www.w3.org/2000/svg"
 xmlns:xlink="http://www.w3.org/1999/xlink"
 version="1.1"
 x="0px"
 y="0px"
 viewBox="-4 -2 32 32"
 style="enable-background:new 0 0 32 32;"
 xml:space="preserve">
 <desc>Created by Yo! Baba from the Noun Project</desc>
 <g>
 <path fill='#D64933' d="M17.467,16.906c-0.523,0.666-1.037,1.25-1.509,1.75C19.932,19.291,22,20.757,22,21.354c0,0.771-3.438,3-10,3   s-10-2.229-10-3c0-0.619,2.225-2.178,6.501-2.768c-0.475-0.508-0.989-1.1-1.513-1.771C2.867,17.606,0,19.338,0,21.354   c0,2.762,5.373,5,12,5s12-2.238,12-5C24,19.413,21.343,17.735,17.467,16.906z"/>
 <path fill='#D64933' d="M12.263,18.525c0,0,6.616-5.293,6.616-11.909C18.879,2.962,15.917,0,12.263,0S5.646,2.962,5.646,6.616   C5.646,13.232,12.263,18.525,12.263,18.525z M9.616,6.616c0-1.461,1.185-2.646,2.646-2.646s2.646,1.185,2.646,2.646   s-1.185,2.646-2.646,2.646S9.616,8.078,9.616,6.616z"/></g>
 </svg>