<svg xmlns="http://www.w3.org/2000/svg" xmlns:xlink="http://www.w3.org/1999/xlink" xml:space="preserve"
 version="1.1"
  style="shape-rendering:geometricPrecision;text-rendering:geometricPrecision;image-rendering:optimizeQuality;"
   viewBox="-25 -150 800 800" x="0px" y="0px" fill-rule="evenodd" clip-rule="evenodd"><defs>
</defs>
<desc>Created by ANTON icon from the Noun Project</desc>
<g>
<path fill="#D64933" d="M373 337c86,0 201,-7 281,-20 100,-15 -23,-44 -60,-44 -2,0 35,18 48,30 1,1 -14,-8 -26,-14 -17,-7 -29,-16 -38,-25 -14,-12 -23,-25 -33,-33l133 -216c6,-9 -14,-20 -19,-12l-151 218c-21,1 -41,9 -45,4 -10,-17 -26,-23 -34,-24 -41,-1 -31,16 -51,14 -23,-2 -22,-15 -49,-16 -26,-1 -28,17 -49,25 -13,5 -18,7 -31,2 -45,-17 -63,31 -80,40 -37,20 -71,39 -70,37 4,-2 11,-9 21,-15 3,-2 34,-15 28,-15 -44,0 -155,30 -60,44 92,14 191,20 285,20l0 0z"/>
<path fill="#D64933" d="M371 345c23,-1 174,-3 300,-25 13,-3 15,-4 21,-12 4,-6 29,-38 20,-42 -7,-3 -16,-8 -21,-2 -3,4 -12,21 -17,20 -3,-1 -8,-2 -9,-3 -6,-2 15,-26 17,-29 11,-11 42,3 54,8 23,13 -4,26 -16,38 -11,11 -31,33 -51,50 -48,47 -107,81 -171,102 -1,9 -2,11 -10,15 -76,32 -158,32 -234,0 -9,-4 -10,-6 -10,-15 -34,-12 -287,-163 -238,-190 11,-5 43,-19 53,-8 3,3 24,27 18,29 -2,1 -7,2 -9,3 -5,1 -15,-16 -18,-20 -2,-5 -30,-5 -20,13 5,8 15,24 20,31 5,8 7,9 20,12 126,22 278,24 301,25l0 0zm-123 102c63,17 98,20 123,21 43,1 75,-6 120,-20 -30,15 -82,24 -119,23 -37,-1 -79,-8 -124,-24z"/>
<path fill="#D64933" d="M309 113c21,-9 25,43 18,46 -7,2 -39,-38 -18,-46z"/>
<path fill="#D64933" d="M309 30c21,-9 25,44 18,46 -7,3 -39,-38 -18,-46z"/>
<path fill="#D64933" d="M392 113c21,-9 25,43 18,46 -7,2 -40,-38 -18,-46z"/>
</g>
</svg>